<svg id="Layer_1" data-name="Layer 1" xmlns="http://www.w3.org/2000/svg" viewBox="0 0 600 295.13"><path d="M253.65,145.77c-2.89,19.66,15.19,35.63,31.73,23.44a48.12,48.12,0,0,0,5.56-5.79v.19c0,1.55-.06,3-.06,3.85,0,3.44,3,3.79,4.26,3.94,5.21.46,9.17.09,8.87-6.35v0c0-.62,0-74.4-.07-109.07,0-3.7-3-4.1-4.31-4.1-5.87-.16-9.82-.82-8.95,7.34,0,14.19,0,40,0,60.32v28.25a17.59,17.59,0,0,1-5.11,12.34A10.37,10.37,0,0,1,277.8,163c-13.57-.11-11.86-17.46-11.84-30-.41-12.3-.09-56.49-.19-73.88.26-5.3,0-7.78-6.51-7.28-7.38-.83-5.65,6.23-5.83,11.19,0,20.78-.25,51,.12,73.32-14.25,14.34-26.47,31.38-46.14,28.95-3.14-.41-10.72-2.08-13.39-8.7-6.47-15.43,5-31.37,9.11-46.26C207.56,97,200.48,80,187.69,73.67c20.76-3.33,33.44-15.38,40.38-31.89,4.68-9.86,8.75-20.73,18.18-27,11.24-7.28,27.63-9.32,33.75,3.35,5,11.34-8.21,25.23-19.8,23.4a2.46,2.46,0,0,0-3,1.91c-.73,2.79,3.41,4.12,5.44,3.61,6.08-1.06,12-1.4,17.76-4.41,11.52-5.84,20-23.83,9.35-34-11.72-10-30.31-7-44.21-1.14-22,9-31.79,30.92-43.25,49.83-6.16,7.51-24.94,12.87-34.42,12.08-.34-.11-6.28-.11-7.79-.1,6.23-17,14.88-37.69,27-49.95,17.63,9.56,32.71,1.83,36-2,3.77-4.36,3.8-12.56-2.13-15.24-12-5.33-23.58.14-32.24,7.62-27.32-15.37-66.89-8.38-86.21,16.32C95.2,36,88.43,48.33,94.8,60.12c11.77,16.55,44.94-3.34,44.09-21.4-1.41-14.33-20.57-10.25-23,.78A2.54,2.54,0,0,0,120,41.56c1.47-1.76,2.11-3.72,5-3.68,8.33.7,3.46,12.85-.66,15.86-3.55,3-9.37,3.23-13.52.57C96.76,42.47,113,22.09,130.63,12.87c15.63-7.63,33.31-6.47,50.05,3.21-54.54,40.64-52.12,158.76-137.14,149.4C21.18,163.84,7,137.93,20,118.2,27.58,106,46.1,98.73,57.22,109c7.55,7.12-1.07,19.35-9.91,18.19-2.22.1-5.4-1.73-6.53,1.32-.52,2.11,1.49,3.66,3.67,3.88,25.87,7.82,43.5-24,15.13-34.15-29.44-8-67.09,19.58-58.27,52.32,4.75,15.53,22.58,24.84,43.47,24.6,51.61-.25,99.35-49.88,113-99.35l18,0c37,13.1-17.79,62.63,2.7,88,12.14,17.59,38.68,11.27,53.65,1.16C234.39,163.37,244.28,155.23,253.65,145.77Zm38.93,10.84ZM212.23,11.85c-2,4.57-11.24,3.21-17.33,1C196.16,10.71,209.8,5.66,212.23,11.85Z"/><path d="M349.89,59.56c3,2.76,3.57,7.64,3.57,14.63,0,21.48.15,46.93.09,67.42l0,21.77c0,3.88.57,8.33,5,8.33h3.62c4.33.19,5.33-5.71,5-8.48V75.67c-.64-29.54-23.9-29.25-33.47-19.45-.12-2.54-3-4.45-6.25-4.15-7.15-.64-6.6,5.27-6.47,10.47l-.05,64.95c1,11.28-2.18,30.94,1.31,42.89,1.5,1.54,4.85,1.23,7.33,1,5.55-1.09,3.62-5.94,4.07-9.7,0-13.82.7-84.75.35-82,0-5.72-.55-16.38,6.16-21.07A8.37,8.37,0,0,1,349.89,59.56Z"/><path d="M408.78,50.61c-23.22-3-33.48,26.33-24.49,44.65,6.57,16.39,21.5,25.59,30.22,41.35,5.13,8.59,6,22.53-2.7,28.9-18.51,10-24.39-16.13-22.43-32-.05-3.17-3.9-4.46-6.5-3.12-4.06,2.21-1.86,7.59-2.54,11.34-1.91,25,24.53,44,43.07,21.66,26.85-38.43-34-58-31.15-93.48.22-10.79,12.16-20.18,21.76-10.26,5.7,6.91,6.65,17.58,7.34,25.37a3.85,3.85,0,0,0,3,3.8c4.11,1,6.1-3.25,5.61-6.63C430.6,67.46,423.35,53,408.78,50.61Z"/><path d="M441,58.24h4.48c0,29.68.06,79,.23,89,0,6.54.3,14,3.89,19.82a13,13,0,0,0,12.36,6.18c12.67-1,17.87-16.18,18.52-30.08.14-2.6-1-5-3.52-4.48-2.2.64-2.48,2.61-2.68,4-1.21,6.75,0,15.25-6.79,19.34-8.77,3-9-9.86-8.75-15.79,0-.48-.05-53.4-.14-88,4.09-.53,13.52,1.91,13.41-3.29.12-5.2-9.32-2.77-13.43-3.29-1.13-27.8,3.52-32.57-6.54-33.22-4.51.06-6.35,1.61-6.55,6,0,.36,0,12.43,0,27.21H441C436.69,51.6,436.69,58.29,441,58.24Z"/><path d="M530.39,163.06c4-6.41,6-13.86,7.79-20.95h0c1.12-5.27,6.84-26.22-3.14-23.09-5.36,7.87-2.16,19.37-5.15,28.44-2.71,11.63-7.45,20.92-17,18.43-7.34-4-8.88-24.22-9.47-31.85-.95-12-1.85-23.66-1-33.58.18-.26.85-.39,2-.39,1.37-.29,32.21.81,32.05-.64,1.91-1.25,1.93-3.73,2-4.8.09-14.38-3.36-26.86-10-36.08-12.42-18.09-27.74-2.77-33.8,12.08-12.56,29.12-12.37,71.74,9,98C512.63,177.93,526.06,171.88,530.39,163.06Zm-6.88-69.18c0,.28,0,.45,0,.5a85.4,85.4,0,0,1-8.93.16v0c-3.29,0-7.24.09-10.49,0-2.41.22-1.84-1.59-1.93-3.16C506.18,43.64,522.89,44.92,523.51,93.88Z"/><path d="M580.23,50.32a19.15,19.15,0,0,0-13.77,5.9c-.12-2.56-3-4.46-6.24-4.15-7-.67-6.67,5.3-6.48,10.47l-.09,102.39c0,2.34.1,4.23,1.36,5.45,2.55,2.34,11.61,1.55,11.22-2.94.39-14.94.76-88.12.51-87.79,0-5.71-.54-16.38,6.17-21.07,21.4-9.86,11.12,44.11,13.47,56.18l0,48.62c0,3.88.57,8.33,5,8.33H595c4.34.19,5.32-5.7,4.95-8.48V75.67C599.94,51.54,583.52,50.32,580.23,50.32Z"/><path d="M190,294.51c-7.61-15.07-20.51-48.95-27.59-67.85-3.34-8.7-7.54-19.87-10.63-26.77-5.31,0-10.88,0-16.11,0a5.48,5.48,0,0,0-1.09,1.52c-.46,1-3.15,7.7-3.74,9.06C120.72,236,105.69,272.82,96.08,295c5.39.06,10.89,0,16.31,0,3-6.47,5.82-13.08,8.83-19.49,3.5,0,40.17-.36,42.92-.09l.44.73c.11-1.34,7.65,17.12,8.06,18.62a1,1,0,0,0,.09.2l.28,0a8.7,8.7,0,0,0,1.22,0,14.3,14.3,0,0,1,2.52,0c4.11,0,8.21.08,12.23,0l1.29,0Zm-35-32.09c-10.39.07-19.65-.39-30,.09,4-10.25,13.82-41.33,16.2-47.57l1.34-3.82,4,10.28c2.72,6.43,11.49,32.78,14.44,40.62C161.22,262.52,158.41,262.44,155,262.42Z"/><path d="M304.34,202.29c-10.5-3.74-21.92-2.53-29.74-2.53-11.81.24-23.72-.34-35.6.11.55,28,0,70.54.18,94.68,4.28.76,9.19-.25,13.6.22H253c12,.32,23.68-.37,35.72.22l.25,0C339.91,298.23,347.92,219.16,304.34,202.29Zm5.17,71.08c-5.68,6.55-13.5,7-21.29,7.59a280,280,0,0,1-31.29-.11l-.1,0-3.1-.3-.43-3.09c-.74-24.87-.12-50.73.24-63.82,15.49.43,42.33-4.45,55.72,7.78C321.78,235.15,321.6,259.86,309.51,273.37Z"/><path d="M412,281.72c-13-.06-42.6.08-52.65-.18l-.05-3.51c-.05-.76.29-25.79.29-25.79l3.25.25c16.62-.46,33.35-.12,50-.39h.2c.4-4.5.1-8.89.14-13a2.45,2.45,0,0,0-.47,0c-10.23.31-40.06.51-53.21-.15-.06-7.75.12-16.89-.06-25.22,20.9-.37,41.81-.43,62.66-.29.6-3.61-.28-8.6,0-13.53-.56,0-1.07,0-1.42,0-19,.67-56.29-.66-76.93.11.47,14.37.57,29.19.4,43.56,0,2.7.24,47.05.17,51.45h1.13C358,295,404,295,424,295c1.38-4,.12-9.75.17-13.7A107.55,107.55,0,0,1,412,281.72Z"/><path d="M471,282c-8.62-.09-12.06.14-19.74-.61l-2.7-.24.05-2.15c-.31-1.46-.25-12.5.24-49.2.18-11.84.19-17.54.26-24.53v-.47c0-1.58.06-3.34.06-4.85-3.16.13-6.22.19-9.33.1-1.64-.06-3.3,0-4.93-.1-.65,30.78-.06,62.62-.19,93.27a1.69,1.69,0,0,0,.48,1.22c29.12,1.33,54.72.13,78.49.52.19-3.86-.21-7.91.32-11.81,0-.27.07-.54.1-.8C511.24,281.88,483.23,282.12,471,282Z"/><path d="M589.49,281.72c-13-.06-42.6.08-52.66-.18l0-3.51c0-.76.29-25.79.29-25.79l3.24.25c16.62-.46,33.36-.12,50-.39h.19c.41-4.5.11-8.89.15-13a2.46,2.46,0,0,0-.47,0c-10.24.31-40.06.51-53.21-.15-.06-7.75.11-16.89-.06-25.22,20.89-.37,41.81-.43,62.66-.29.59-3.61-.28-8.6,0-13.53-.55,0-1.07,0-1.42,0-19,.67-56.29-.66-76.92.11.47,14.37.56,29.19.39,43.56,0,2.7.24,47.05.17,51.45H523c12.2,0,56.38-.09,76.38,0,1.37-4,.11-9.75.16-13.7A72.37,72.37,0,0,1,589.49,281.72Z"/><path d="M143,191.44h.13c16.15.62,16.06-19.42.53-19.21l-.56,0c-7.83.76-9.43,4.07-11.66,9.19l1,3.12C133.6,188.54,138.36,191.41,143,191.44Zm-2.15-11.07c1.73-3.8,7.85-.73,5.75,3-1.52,3-6.16,1.77-6.25-1.45A10.84,10.84,0,0,1,140.82,180.37Z"/></svg>